#VRML V2.0 utf8

WorldInfo {
  title "The Buggy"
  info [
    "Made By: Ryan"
    "Uploaded: July, 2026"
    "Limited To: UNLIMITED"
    "Mall Price: 100 CC"
    "Classic rear-engine bubble car (a Buggy). Hand-authored VRML97. No brand names, no badges, no scan data."
  ]
}

# Named 3/4 viewpoint, inherent to the object (auto-unbinds on leave).
Viewpoint {
  description "The Buggy - 3/4 View"
  position 3.6 0.4 3.4
  orientation -0.286 0.952 0.107 0.751
}

Transform {
  translation 0 -1.75 -0.40
  children [

# ---- body shell (9 cross-sections, molded rounded tub) ------------------
  Shape {
    appearance DEF BodyPaint Appearance { material Material { diffuseColor 0.90 0.40 0.05 specularColor 0.5 0.4 0.3 shininess 0.55 } }
    geometry IndexedFaceSet {
      solid FALSE convex FALSE creaseAngle 1.6
      coord Coordinate { point [
      0 0.72 1.35, 0.22 0.72 1.35, 0.34 0.66 1.35, 0.46 0.6 1.35,
      0.42 0.54 1.35, 0.24 0.5 1.35, 0 0.5 1.35, -0.24 0.5 1.35,
      -0.42 0.54 1.35, -0.46 0.6 1.35, -0.34 0.66 1.35, -0.22 0.72 1.35,
      0 0.9 1, 0.34 0.9 1, 0.5 0.8 1, 0.62 0.66 1,
      0.58 0.55 1, 0.36 0.48 1, 0 0.48 1, -0.36 0.48 1,
      -0.58 0.55 1, -0.62 0.66 1, -0.5 0.8 1, -0.34 0.9 1,
      0 1.06 0.62, 0.3 1.06 0.62, 0.55 1 0.62, 0.7 0.72 0.62,
      0.66 0.55 0.62, 0.44 0.47 0.62, 0 0.47 0.62, -0.44 0.47 0.62,
      -0.66 0.55 0.62, -0.7 0.72 0.62, -0.55 1 0.62, -0.3 1.06 0.62,
      0 1.1 0.22, 0.3 1.1 0.22, 0.58 1.04 0.22, 0.72 0.74 0.22,
      0.68 0.55 0.22, 0.46 0.47 0.22, 0 0.47 0.22, -0.46 0.47 0.22,
      -0.68 0.55 0.22, -0.72 0.74 0.22, -0.58 1.04 0.22, -0.3 1.1 0.22,
      0 1.12 -0.25, 0.3 1.12 -0.25, 0.6 1.05 -0.25, 0.73 0.76 -0.25,
      0.69 0.55 -0.25, 0.47 0.47 -0.25, 0 0.47 -0.25, -0.47 0.47 -0.25,
      -0.69 0.55 -0.25, -0.73 0.76 -0.25, -0.6 1.05 -0.25, -0.3 1.12 -0.25,
      0 1.1 -0.75, 0.3 1.1 -0.75, 0.58 1.04 -0.75, 0.72 0.76 -0.75,
      0.68 0.55 -0.75, 0.46 0.47 -0.75, 0 0.47 -0.75, -0.46 0.47 -0.75,
      -0.68 0.55 -0.75, -0.72 0.76 -0.75, -0.58 1.04 -0.75, -0.3 1.1 -0.75,
      0 1.06 -1.2, 0.3 1.06 -1.2, 0.55 0.98 -1.2, 0.7 0.74 -1.2,
      0.66 0.55 -1.2, 0.44 0.47 -1.2, 0 0.47 -1.2, -0.44 0.47 -1.2,
      -0.66 0.55 -1.2, -0.7 0.74 -1.2, -0.55 0.98 -1.2, -0.3 1.06 -1.2,
      0 1.1 -1.62, 0.38 1.1 -1.62, 0.54 0.95 -1.62, 0.64 0.7 -1.62,
      0.6 0.55 -1.62, 0.4 0.48 -1.62, 0 0.48 -1.62, -0.4 0.48 -1.62,
      -0.6 0.55 -1.62, -0.64 0.7 -1.62, -0.54 0.95 -1.62, -0.38 1.1 -1.62,
      0 0.8 -2, 0.24 0.8 -2, 0.36 0.72 -2, 0.48 0.62 -2,
      0.44 0.55 -2, 0.26 0.52 -2, 0 0.52 -2, -0.26 0.52 -2,
      -0.44 0.55 -2, -0.48 0.62 -2, -0.36 0.72 -2, -0.24 0.8 -2,
      ] }
      coordIndex [
      0,1,13,12,-1,
      1,2,14,13,-1,
      2,3,15,14,-1,
      3,4,16,15,-1,
      4,5,17,16,-1,
      5,6,18,17,-1,
      6,7,19,18,-1,
      7,8,20,19,-1,
      8,9,21,20,-1,
      9,10,22,21,-1,
      10,11,23,22,-1,
      11,0,12,23,-1,
      12,13,25,24,-1,
      13,14,26,25,-1,
      14,15,27,26,-1,
      15,16,28,27,-1,
      16,17,29,28,-1,
      17,18,30,29,-1,
      18,19,31,30,-1,
      19,20,32,31,-1,
      20,21,33,32,-1,
      21,22,34,33,-1,
      22,23,35,34,-1,
      23,12,24,35,-1,
      26,27,39,38,-1,
      27,28,40,39,-1,
      28,29,41,40,-1,
      29,30,42,41,-1,
      30,31,43,42,-1,
      31,32,44,43,-1,
      32,33,45,44,-1,
      33,34,46,45,-1,
      38,39,51,50,-1,
      39,40,52,51,-1,
      40,41,53,52,-1,
      41,42,54,53,-1,
      42,43,55,54,-1,
      43,44,56,55,-1,
      44,45,57,56,-1,
      45,46,58,57,-1,
      50,51,63,62,-1,
      51,52,64,63,-1,
      52,53,65,64,-1,
      53,54,66,65,-1,
      54,55,67,66,-1,
      55,56,68,67,-1,
      56,57,69,68,-1,
      57,58,70,69,-1,
      62,63,75,74,-1,
      63,64,76,75,-1,
      64,65,77,76,-1,
      65,66,78,77,-1,
      66,67,79,78,-1,
      67,68,80,79,-1,
      68,69,81,80,-1,
      69,70,82,81,-1,
      72,73,85,84,-1,
      73,74,86,85,-1,
      74,75,87,86,-1,
      75,76,88,87,-1,
      76,77,89,88,-1,
      77,78,90,89,-1,
      78,79,91,90,-1,
      79,80,92,91,-1,
      80,81,93,92,-1,
      81,82,94,93,-1,
      82,83,95,94,-1,
      83,72,84,95,-1,
      84,85,97,96,-1,
      85,86,98,97,-1,
      86,87,99,98,-1,
      87,88,100,99,-1,
      88,89,101,100,-1,
      89,90,102,101,-1,
      90,91,103,102,-1,
      91,92,104,103,-1,
      92,93,105,104,-1,
      93,94,106,105,-1,
      94,95,107,106,-1,
      95,84,96,107,-1,
      0,1,2,3,4,5,6,7,8,9,10,11,-1,
      107,106,105,104,103,102,101,100,99,98,97,96,-1,
      ]
    }
  }

# ---- interior: floor, dash, two seats, steering wheel ------------------
  Transform { translation 0 0.62 -0.25 children [
    Shape { appearance DEF CabinDark Appearance { material Material { diffuseColor 0.12 0.12 0.13 shininess 0.15 } } geometry Box { size 0.98 0.06 1.55 } } ] }
  Transform { translation 0 0.98 0.42 children [
    Shape { appearance USE CabinDark geometry Box { size 0.94 0.16 0.12 } } ] }
  Transform { translation 0.26 0.76 -0.18 children [
    Shape { appearance DEF SeatTan Appearance { material Material { diffuseColor 0.30 0.22 0.14 shininess 0.2 } } geometry Box { size 0.34 0.14 0.42 } } ] }
  Transform { translation 0.26 1.04 -0.42 children [
    Shape { appearance USE SeatTan geometry Box { size 0.34 0.52 0.14 } } ] }
  Transform { translation -0.26 0.76 -0.18 children [
    Shape { appearance USE SeatTan geometry Box { size 0.34 0.14 0.42 } } ] }
  Transform { translation -0.26 1.04 -0.42 children [
    Shape { appearance USE SeatTan geometry Box { size 0.34 0.52 0.14 } } ] }
  Transform { translation -0.26 0.9 0.2 rotation 1 0 0 0.7 children [
    Shape { appearance USE CabinDark geometry Box { size 0.04 0.04 0.24 } } ] }
  Transform { translation -0.26 1 0.3 rotation 1 0 0 1.15 children [
    Shape { appearance USE CabinDark geometry Cylinder { radius 0.12 height 0.025 } } ] }
  Transform { translation -0.26 1 0.3 children [
    Shape { appearance USE CabinDark geometry Sphere { radius 0.035 } } ] }

# ---- pontoon fenders (open-bottom arches, tire shows) + running boards --
  Transform { translation 0.8 0.32 0.72 children [
    DEF Fender Shape { appearance USE BodyPaint geometry Extrusion {
      crossSection [ -0.24 -0.02, 0.24 -0.02, 0.25 0.03, 0.20 0.10, 0.08 0.13, -0.08 0.13, -0.20 0.10, -0.25 0.03, -0.24 -0.02 ]
      spine [ 0 0.05 0.417, 0 0.149 0.393, 0 0.238 0.346, 0 0.314 0.279, 0 0.372 0.195, 0 0.408 0.101, 0 0.42 0, 0 0.408 -0.101, 0 0.372 -0.195, 0 0.314 -0.279, 0 0.238 -0.346, 0 0.149 -0.393, 0 0.05 -0.417 ]
      solid FALSE beginCap TRUE endCap TRUE creaseAngle 1.6 } }
  ] }
  Transform { translation -0.8 0.32 0.72 children [
    USE Fender
  ] }
  Transform { translation 0.8 0.32 -1.38 children [
    USE Fender
  ] }
  Transform { translation -0.8 0.32 -1.38 children [
    USE Fender
  ] }
  Transform { translation 0.72 0.34 -0.32 children [
    Shape { appearance DEF DarkTrim Appearance { material Material { diffuseColor 0.07 0.07 0.08 specularColor 0.2 0.2 0.2 shininess 0.3 } } geometry Box { size 0.13 0.06 1.05 } } ] }
  Transform { translation -0.72 0.34 -0.32 children [
    Shape { appearance USE DarkTrim geometry Box { size 0.13 0.06 1.05 } } ] }
  Transform { translation 0.68 0.42 0.72 children [
    Shape { appearance DEF BlackRubber Appearance { material Material { diffuseColor 0.04 0.04 0.04 shininess 0.1 } } geometry Box { size 0.05 0.42 0.6 } } ] }
  Transform { translation -0.68 0.42 0.72 children [
    Shape { appearance USE BlackRubber geometry Box { size 0.05 0.42 0.6 } } ] }
  Transform { translation 0.68 0.42 -1.38 children [
    Shape { appearance USE BlackRubber geometry Box { size 0.05 0.42 0.6 } } ] }
  Transform { translation -0.68 0.42 -1.38 children [
    Shape { appearance USE BlackRubber geometry Box { size 0.05 0.42 0.6 } } ] }

# ---- wheels: tire + steel wheel + chrome hubcap -------------------------
  Transform { translation 0.8 0.32 0.72 rotation 0 0 1 -1.5708 children [
    DEF WheelUnit Group { children [
      Shape { appearance USE BlackRubber geometry Cylinder { radius 0.32 height 0.20 } }
      Shape { appearance DEF RimSilver Appearance { material Material { diffuseColor 0.66 0.67 0.70 specularColor 0.7 0.7 0.7 shininess 0.7 } } geometry Cylinder { radius 0.20 height 0.22 } }
      Transform { translation 0 0.115 0 children [
        Shape { appearance DEF ChromeTrim Appearance { material Material { diffuseColor 0.72 0.73 0.77 specularColor 0.95 0.95 0.95 shininess 0.9 } } geometry Cylinder { radius 0.12 height 0.03 } } ] }
      Transform { translation 0 0.13 0 children [
        Shape { appearance USE ChromeTrim geometry Sphere { radius 0.05 } } ] }
    ] }
  ] }
  Transform { translation -0.8 0.32 0.72 rotation 0 0 1 1.5708 children [
    USE WheelUnit
  ] }
  Transform { translation 0.8 0.32 -1.38 rotation 0 0 1 -1.5708 children [
    USE WheelUnit
  ] }
  Transform { translation -0.8 0.32 -1.38 rotation 0 0 1 1.5708 children [
    USE WheelUnit
  ] }

# ---- greenhouse: smooth lofted arch (roof+pillars) + glass + sunroof ---
  Shape { appearance USE BodyPaint geometry IndexedFaceSet {
    solid FALSE convex TRUE creaseAngle 1.7
    coord Coordinate { point [ 0.45 1.05 0.5, 0.441 1.253 0.5, 0.378 1.44 0.5, 0.198 1.541 0.5, 0 1.565 0.5, -0.198 1.541 0.5, -0.378 1.44 0.5, -0.441 1.253 0.5, -0.45 1.05 0.5, 0.485 1.05 0.33, 0.475 1.297 0.33, 0.407 1.525 0.33, 0.213 1.648 0.33, 0 1.677 0.33, -0.213 1.648 0.33, -0.407 1.525 0.33, -0.475 1.297 0.33, -0.485 1.05 0.33, 0.49 1.05 0.28, 0.48 1.302 0.28, 0.412 1.535 0.28, 0.216 1.661 0.28, 0 1.69 0.28, -0.216 1.661 0.28, -0.412 1.535 0.28, -0.48 1.302 0.28, -0.49 1.05 0.28, 0.5 1.05 -0.26, 0.49 1.31 -0.26, 0.42 1.55 -0.26, 0.22 1.68 -0.26, 0 1.71 -0.26, -0.22 1.68 -0.26, -0.42 1.55 -0.26, -0.49 1.31 -0.26, -0.5 1.05 -0.26, 0.5 1.05 -0.32, 0.49 1.31 -0.32, 0.42 1.55 -0.32, 0.22 1.68 -0.32, 0 1.71 -0.32, -0.22 1.68 -0.32, -0.42 1.55 -0.32, -0.49 1.31 -0.32, -0.5 1.05 -0.32, 0.49 1.05 -0.94, 0.48 1.297 -0.94, 0.412 1.525 -0.94, 0.216 1.648 -0.94, 0 1.677 -0.94, -0.216 1.648 -0.94, -0.412 1.525 -0.94, -0.48 1.297 -0.94, -0.49 1.05 -0.94, 0.485 1.05 -1, 0.475 1.292 -1, 0.407 1.515 -1, 0.213 1.636 -1, 0 1.664 -1, -0.213 1.636 -1, -0.407 1.515 -1, -0.475 1.292 -1, -0.485 1.05 -1, 0.44 1.05 -1.16, 0.431 1.253 -1.16, 0.37 1.44 -1.16, 0.194 1.541 -1.16, 0 1.565 -1.16, -0.194 1.541 -1.16, -0.37 1.44 -1.16, -0.431 1.253 -1.16, -0.44 1.05 -1.16 ] }
    coordIndex [ 2,3,12,11,-1, 3,4,13,12,-1, 4,5,14,13,-1, 5,6,15,14,-1, 9,10,19,18,-1, 10,11,20,19,-1, 11,12,21,20,-1, 12,13,22,21,-1, 13,14,23,22,-1, 14,15,24,23,-1, 15,16,25,24,-1, 16,17,26,25,-1, 20,21,30,29,-1, 21,22,31,30,-1, 22,23,32,31,-1, 23,24,33,32,-1, 27,28,37,36,-1, 28,29,38,37,-1, 29,30,39,38,-1, 30,31,40,39,-1, 31,32,41,40,-1, 32,33,42,41,-1, 33,34,43,42,-1, 34,35,44,43,-1, 38,39,48,47,-1, 39,40,49,48,-1, 40,41,50,49,-1, 41,42,51,50,-1, 45,46,55,54,-1, 46,47,56,55,-1, 47,48,57,56,-1, 48,49,58,57,-1, 49,50,59,58,-1, 50,51,60,59,-1, 51,52,61,60,-1, 52,53,62,61,-1, 56,57,66,65,-1, 57,58,67,66,-1, 58,59,68,67,-1, 59,60,69,68,-1 ] } }
  Shape { appearance DEF GlassDark Appearance { material Material { diffuseColor 0.06 0.09 0.12 transparency 0.5 specularColor 0.6 0.6 0.7 shininess 0.6 } } geometry IndexedFaceSet {
    solid FALSE coord Coordinate { point [ 0.45 1.05 0.5, 0.378 1.44 0.5, 0.407 1.525 0.33, 0.485 1.05 0.33 ] }
    coordIndex [ 0,1,2,3,-1 ] } }
  Shape { appearance USE GlassDark geometry IndexedFaceSet {
    solid FALSE coord Coordinate { point [ -0.45 1.05 0.5, -0.378 1.44 0.5, -0.407 1.525 0.33, -0.485 1.05 0.33 ] }
    coordIndex [ 0,1,2,3,-1 ] } }
  Shape { appearance USE GlassDark geometry IndexedFaceSet {
    solid FALSE coord Coordinate { point [ 0.49 1.05 0.28, 0.412 1.535 0.28, 0.42 1.55 -0.26, 0.5 1.05 -0.26 ] }
    coordIndex [ 0,1,2,3,-1 ] } }
  Shape { appearance USE GlassDark geometry IndexedFaceSet {
    solid FALSE coord Coordinate { point [ -0.49 1.05 0.28, -0.412 1.535 0.28, -0.42 1.55 -0.26, -0.5 1.05 -0.26 ] }
    coordIndex [ 0,1,2,3,-1 ] } }
  Shape { appearance USE GlassDark geometry IndexedFaceSet {
    solid FALSE coord Coordinate { point [ 0.5 1.05 -0.32, 0.42 1.55 -0.32, 0.412 1.525 -0.94, 0.49 1.05 -0.94 ] }
    coordIndex [ 0,1,2,3,-1 ] } }
  Shape { appearance USE GlassDark geometry IndexedFaceSet {
    solid FALSE coord Coordinate { point [ -0.5 1.05 -0.32, -0.42 1.55 -0.32, -0.412 1.525 -0.94, -0.49 1.05 -0.94 ] }
    coordIndex [ 0,1,2,3,-1 ] } }
  Shape { appearance USE GlassDark geometry IndexedFaceSet {
    solid FALSE coord Coordinate { point [ 0.485 1.05 -1, 0.407 1.515 -1, 0.37 1.44 -1.16, 0.44 1.05 -1.16 ] }
    coordIndex [ 0,1,2,3,-1 ] } }
  Shape { appearance USE GlassDark geometry IndexedFaceSet {
    solid FALSE coord Coordinate { point [ -0.485 1.05 -1, -0.407 1.515 -1, -0.37 1.44 -1.16, -0.44 1.05 -1.16 ] }
    coordIndex [ 0,1,2,3,-1 ] } }
  Shape { appearance USE GlassDark geometry IndexedFaceSet {
    solid FALSE coord Coordinate { point [ 0.45 1.05 0.5, -0.45 1.05 0.5, -0.378 1.44 0.5, 0.378 1.44 0.5 ] }
    coordIndex [ 0,1,2,3,-1 ] } }
  Shape { appearance USE GlassDark geometry IndexedFaceSet {
    solid FALSE coord Coordinate { point [ 0.44 1.05 -1.16, 0.37 1.44 -1.16, -0.37 1.44 -1.16, -0.44 1.05 -1.16 ] }
    coordIndex [ 0,1,2,3,-1 ] } }
  Shape { appearance USE GlassDark geometry IndexedFaceSet {
    solid FALSE coord Coordinate { point [ -0.19 1.72 0.05, 0.19 1.72 0.05, 0.19 1.72 -0.58, -0.19 1.72 -0.58 ] }
    coordIndex [ 0,1,2,3,-1 ] } }

# ---- chrome blade bumpers + over-riders ---------------------------------
  Transform { translation 0 0.44 1.28 children [
    Shape { appearance USE ChromeTrim geometry Box { size 1.3 0.09 0.1 } } ] }
  Transform { translation 0.34 0.52 1.29 children [
    Shape { appearance USE ChromeTrim geometry Box { size 0.07 0.22 0.08 } } ] }
  Transform { translation -0.34 0.52 1.29 children [
    Shape { appearance USE ChromeTrim geometry Box { size 0.07 0.22 0.08 } } ] }
  Transform { translation 0 0.44 -1.96 children [
    Shape { appearance USE ChromeTrim geometry Box { size 1.28 0.09 0.1 } } ] }
  Transform { translation 0.34 0.52 -1.97 children [
    Shape { appearance USE ChromeTrim geometry Box { size 0.07 0.22 0.08 } } ] }
  Transform { translation -0.34 0.52 -1.97 children [
    Shape { appearance USE ChromeTrim geometry Box { size 0.07 0.22 0.08 } } ] }

# ---- round headlights (on fenders), taillights, turn lamps --------------
  Transform { translation 0.8 0.92 0.86 scale 1 1 0.7 children [
    Shape { appearance DEF HeadlightWarm Appearance { material Material { diffuseColor 0.95 0.94 0.85 emissiveColor 0.4 0.38 0.3 specularColor 0.85 0.85 0.85 shininess 0.75 } } geometry Sphere { radius 0.12 } } ] }
  Transform { translation 0.8 0.92 0.925 children [
    Shape { appearance USE ChromeTrim geometry Cylinder { radius 0.125 height 0.03 } } ] }
  Transform { translation -0.8 0.92 0.86 scale 1 1 0.7 children [
    Shape { appearance USE HeadlightWarm geometry Sphere { radius 0.12 } } ] }
  Transform { translation -0.8 0.92 0.925 children [
    Shape { appearance USE ChromeTrim geometry Cylinder { radius 0.125 height 0.03 } } ] }
  Transform { translation 0.4 0.55 1.22 children [
    Shape { appearance DEF AmberLamp Appearance { material Material { diffuseColor 0.85 0.5 0.08 emissiveColor 0.4 0.22 0.02 shininess 0.5 } } geometry Sphere { radius 0.06 } } ] }
  Transform { translation -0.4 0.55 1.22 children [
    Shape { appearance USE AmberLamp geometry Sphere { radius 0.06 } } ] }
  Transform { translation 0.56 0.8 -1.9 scale 1 1 0.7 children [
    Shape { appearance DEF TailRed Appearance { material Material { diffuseColor 0.65 0.05 0.04 emissiveColor 0.35 0.02 0.02 shininess 0.45 } } geometry Sphere { radius 0.1 } } ] }
  Transform { translation -0.56 0.8 -1.9 scale 1 1 0.7 children [
    Shape { appearance USE TailRed geometry Sphere { radius 0.1 } } ] }

# ---- hood seam, door seams, handles, plate, window rubber ---------------
  Transform { translation 0 0.94 0.85 children [
    Shape { appearance USE DarkTrim geometry Box { size 0.72 0.015 0.02 } } ] }
  Transform { translation 0.37 0.8 0.9 rotation 1 0 0 0.4 children [
    Shape { appearance USE DarkTrim geometry Box { size 0.02 0.3 0.015 } } ] }
  Transform { translation -0.37 0.8 0.9 rotation 1 0 0 0.4 children [
    Shape { appearance USE DarkTrim geometry Box { size 0.02 0.3 0.015 } } ] }
  Transform { translation 0 1.02 -1.55 children [
    Shape { appearance USE DarkTrim geometry Box { size 0.66 0.015 0.02 } } ] }
  Transform { translation 0.66 0.8 0.05 children [
    Shape { appearance USE DarkTrim geometry Box { size 0.015 0.55 0.02 } } ] }
  Transform { translation 0.66 0.8 -0.6 children [
    Shape { appearance USE DarkTrim geometry Box { size 0.015 0.55 0.02 } } ] }
  Transform { translation 0.68 0.98 -0.45 children [
    Shape { appearance USE ChromeTrim geometry Box { size 0.03 0.04 0.14 } } ] }
  Transform { translation -0.66 0.8 0.05 children [
    Shape { appearance USE DarkTrim geometry Box { size 0.015 0.55 0.02 } } ] }
  Transform { translation -0.66 0.8 -0.6 children [
    Shape { appearance USE DarkTrim geometry Box { size 0.015 0.55 0.02 } } ] }
  Transform { translation -0.68 0.98 -0.45 children [
    Shape { appearance USE ChromeTrim geometry Box { size 0.03 0.04 0.14 } } ] }
  Transform { translation 0 0.62 -1.99 children [
    Shape { appearance DEF PlateGray Appearance { material Material { diffuseColor 0.82 0.82 0.80 shininess 0.2 } } geometry Box { size 0.34 0.11 0.02 } } ] }
  Transform { translation 0 0.62 -1.982 children [
    Shape { appearance USE DarkTrim geometry Box { size 0.4 0.16 0.02 } } ] }

  ]
}
